HIERARCHY
ROOT Hips
{
  OFFSET 5.84602e-005 68.8428 3.50346
  CHANNELS 6 Xposition Yposition Zposition Zrotation Xrotation Yrotation
  JOINT Spine
  {
    OFFSET 0 8.597 -4.6522
    CHANNELS 3 Zrotation Xrotation Yrotation
    JOINT Spine1
    {
      OFFSET 0 7.8454 0.4098
      CHANNELS 3 Zrotation Xrotation Yrotation
      JOINT Spine2
      {
        OFFSET 0 9.7078 -2.1609
        CHANNELS 3 Zrotation Xrotation Yrotation
        JOINT Neck
        {
          OFFSET 0 21.8761 -0.4549
          CHANNELS 3 Zrotation Xrotation Yrotation
          JOINT Head
          {
            OFFSET 0 12.3537 3.3602
            CHANNELS 3 Zrotation Xrotation Yrotation
            End Site
            {
              OFFSET 0.0001 18.9506 0.5657
            }
          }
        }
        JOINT LeftShoulder
        {
          OFFSET 2.2086 21.1115 7.2329
          CHANNELS 3 Zrotation Xrotation Yrotation
          JOINT LeftArm
          {
            OFFSET 13.1193 3.0282 -4.8998
            CHANNELS 3 Zrotation Xrotation Yrotation
            JOINT LeftForeArm
            {
              OFFSET 27.4081 -0.0973053 -0.2375
              CHANNELS 3 Zrotation Xrotation Yrotation
              JOINT LeftHand
              {
                OFFSET 22.8641 0.0662994 -0.1369
                CHANNELS 3 Zrotation Xrotation Yrotation
                JOINT LeftHandIndex1
                {
                  OFFSET 8.8614 0.775009 2.4612
                  CHANNELS 3 Zrotation Xrotation Yrotation
                  JOINT LeftHandIndex2
                  {
                    OFFSET 3.3146 -0.808304 0.5841
                    CHANNELS 3 Zrotation Xrotation Yrotation
                    JOINT LeftHandIndex3
                    {
                      OFFSET 2.2628 -0.552002 0.3989
                      CHANNELS 3 Zrotation Xrotation Yrotation
                      End Site
                      {
                        OFFSET 1.6102 -0.4807 0.2612
                      }
                    }
                  }
                }
                JOINT LeftHandMiddle1
                {
                  OFFSET 8.9937 0.895004 0.2143
                  CHANNELS 3 Zrotation Xrotation Yrotation
                  JOINT LeftHandMiddle2
                  {
                    OFFSET 4.0984 0.0113983 -0.0242
                    CHANNELS 3 Zrotation Xrotation Yrotation
                    JOINT LeftHandMiddle3
                    {
                      OFFSET 2.2716 0.00689697 -0.0138001
                      CHANNELS 3 Zrotation Xrotation Yrotation
                      End Site
                      {
                        OFFSET 2.0404 -0.1441 0.0027
                      }
                    }
                  }
                }
                JOINT LeftHandRing1
                {
                  OFFSET 8.5234 0.597198 -2.0164
                  CHANNELS 3 Zrotation Xrotation Yrotation
                  JOINT LeftHandRing2
                  {
                    OFFSET 3.7188 -0.188293 -0.2328
                    CHANNELS 3 Zrotation Xrotation Yrotation
                    JOINT LeftHandRing3
                    {
                      OFFSET 2.1191 -0.106598 -0.1332
                      CHANNELS 3 Zrotation Xrotation Yrotation
                      End Site
                      {
                        OFFSET 1.8737 -0.2304 -0.0886
                      }
                    }
                  }
                }
                JOINT LeftHandPinky1
                {
                  OFFSET 7.9094 -0.601089 -3.4825
                  CHANNELS 3 Zrotation Xrotation Yrotation
                  JOINT LeftHandPinky2
                  {
                    OFFSET 2.2874 -0.477005 -0.6314
                    CHANNELS 3 Zrotation Xrotation Yrotation
                    JOINT LeftHandPinky3
                    {
                      OFFSET 1.6774 -0.349396 -0.4633
                      CHANNELS 3 Zrotation Xrotation Yrotation
                      End Site
                      {
                        OFFSET 1.4888 -0.4091 -0.3416
                      }
                    }
                  }
                }
                JOINT LeftHandThumb1
                {
                  OFFSET 1.833 -1.3875 1.3896
                  CHANNELS 3 Zrotation Xrotation Yrotation
                  JOINT LeftHandThumb2
                  {
                    OFFSET 3.4129 -1.121 2.5732
                    CHANNELS 3 Zrotation Xrotation Yrotation
                    JOINT LeftHandThumb3
                    {
                      OFFSET 2.2474 -0.804199 1.6192
                      CHANNELS 3 Zrotation Xrotation Yrotation
                      End Site
                      {
                        OFFSET 1.6527 -0.5689 1.1317
                      }
                    }
                  }
                }
              }
            }
          }
        }
        JOINT RightShoulder
        {
          OFFSET -2.2086 21.1115 7.2329
          CHANNELS 3 Zrotation Xrotation Yrotation
          JOINT RightArm
          {
            OFFSET -13.1216 3.0287 -4.9007
            CHANNELS 3 Zrotation Xrotation Yrotation
            JOINT RightForeArm
            {
              OFFSET -27.4081 -0.0973053 -0.2375
              CHANNELS 3 Zrotation Xrotation Yrotation
              JOINT RightHand
              {
                OFFSET -22.8641 0.0664063 -0.1369
                CHANNELS 3 Zrotation Xrotation Yrotation
                JOINT RightHandIndex1
                {
                  OFFSET -8.8614 0.774994 2.4612
                  CHANNELS 3 Zrotation Xrotation Yrotation
                  JOINT RightHandIndex2
                  {
                    OFFSET -3.3146 -0.808304 0.5841
                    CHANNELS 3 Zrotation Xrotation Yrotation
                    JOINT RightHandIndex3
                    {
                      OFFSET -2.2628 -0.552002 0.3989
                      CHANNELS 3 Zrotation Xrotation Yrotation
                      End Site
                      {
                        OFFSET -1.6102 -0.4807 0.2612
                      }
                    }
                  }
                }
                JOINT RightHandMiddle1
                {
                  OFFSET -8.9937 0.894989 0.2143
                  CHANNELS 3 Zrotation Xrotation Yrotation
                  JOINT RightHandMiddle2
                  {
                    OFFSET -4.0984 0.0113983 -0.0242
                    CHANNELS 3 Zrotation Xrotation Yrotation
                    JOINT RightHandMiddle3
                    {
                      OFFSET -2.2716 0.00691223 -0.0138001
                      CHANNELS 3 Zrotation Xrotation Yrotation
                      End Site
                      {
                        OFFSET -2.0404 -0.1441 0.0027
                      }
                    }
                  }
                }
                JOINT RightHandRing1
                {
                  OFFSET -8.5234 0.597198 -2.0164
                  CHANNELS 3 Zrotation Xrotation Yrotation
                  JOINT RightHandRing2
                  {
                    OFFSET -3.7188 -0.188309 -0.2328
                    CHANNELS 3 Zrotation Xrotation Yrotation
                    JOINT RightHandRing3
                    {
                      OFFSET -2.1191 -0.106598 -0.1332
                      CHANNELS 3 Zrotation Xrotation Yrotation
                      End Site
                      {
                        OFFSET -1.8737 -0.2304 -0.0886
                      }
                    }
                  }
                }
                JOINT RightHandPinky1
                {
                  OFFSET -7.9094 -0.601105 -3.4825
                  CHANNELS 3 Zrotation Xrotation Yrotation
                  JOINT RightHandPinky2
                  {
                    OFFSET -2.2874 -0.477005 -0.6314
                    CHANNELS 3 Zrotation Xrotation Yrotation
                    JOINT RightHandPinky3
                    {
                      OFFSET -1.6774 -0.349396 -0.4633
                      CHANNELS 3 Zrotation Xrotation Yrotation
                      End Site
                      {
                        OFFSET -1.4888 -0.4091 -0.3416
                      }
                    }
                  }
                }
                JOINT RightHandThumb1
                {
                  OFFSET -1.833 -1.38751 1.3896
                  CHANNELS 3 Zrotation Xrotation Yrotation
                  JOINT RightHandThumb2
                  {
                    OFFSET -3.41299 -1.12099 2.5732
                    CHANNELS 3 Zrotation Xrotation Yrotation
                    JOINT RightHandThumb3
                    {
                      OFFSET -2.24741 -0.804108 1.6192
                      CHANNELS 3 Zrotation Xrotation Yrotation
                      End Site
                      {
                        OFFSET -1.6527 -0.5689 1.1317
                      }
                    }
                  }
                }
              }
            }
          }
        }
      }
    }
  }
  JOINT RightUpLeg
  {
    OFFSET -9.1966 3.8861 -0.7581
    CHANNELS 3 Zrotation Xrotation Yrotation
    JOINT RightLeg
    {
      OFFSET -0.7359 -41.0265 0
      CHANNELS 3 Zrotation Xrotation Yrotation
      JOINT RightFoot
      {
        OFFSET 0 -40.2855 0
        CHANNELS 3 Zrotation Xrotation Yrotation
        JOINT RightToeBase
        {
          OFFSET 0 -5.6122 11.7359
          CHANNELS 3 Zrotation Xrotation Yrotation
          End Site
          {
            OFFSET 0 0 7.8731
          }
        }
      }
    }
  }
  JOINT LeftUpLeg
  {
    OFFSET 9.1965 3.8864 -0.7581
    CHANNELS 3 Zrotation Xrotation Yrotation
    JOINT LeftLeg
    {
      OFFSET 0.7359 -41.0268 0
      CHANNELS 3 Zrotation Xrotation Yrotation
      JOINT LeftFoot
      {
        OFFSET 0 -40.2855 0
        CHANNELS 3 Zrotation Xrotation Yrotation
        JOINT LeftToeBase
        {
          OFFSET 0 -5.6122 11.7359
          CHANNELS 3 Zrotation Xrotation Yrotation
          End Site
          {
            OFFSET 0 0 7.8731
          }
        }
      }
    }
  }
}
MOTION
Frames:	4
Frame Time:	0.0333333
-0.0122809 69.1417 13.5771 -2.66596e-015 31.8012 180 -0.614132 5.53628 -0.21427 -1.21593 11.0745 -0.371204 -1.21593 11.0745 -0.371204 12.019 3.40149 -18.727 11.4249 -36.7468 7.18828 -21.9874 -16.0496 -35.255 -8.91009 -22.4505 -19.061 -15.6601 3.89575 -27.9806 -56.9976 -9.23762 3.12147 -1.16833e-006 8.03504e-007 9.43607e-007 -2.39618e-006 -2.54532e-007 7.96575e-008 -1.16833e-006 8.03503e-007 9.43606e-007 -1.16833e-006 8.03504e-007 9.43607e-007 -0.014575 -8.61485e-005 -1.02053e-006 -1.16834e-006 8.03383e-007 9.4371e-007 -1.16833e-006 8.03504e-007 9.43607e-007 -0.018769 -0.00117841 6.05035e-005 -1.16834e-006 8.03348e-007 9.4375e-007 -1.16833e-006 8.03504e-007 9.43607e-007 -0.012267 -0.00324011 0.000678226 -1.16831e-006 8.03406e-007 9.43726e-007 -1.16833e-006 8.03504e-007 9.43607e-007 -2.39618e-006 -2.54532e-007 7.96575e-008 -1.16833e-006 8.03503e-007 9.43606e-007 11.5149 -6.93575 5.58065 42.0448 -5.44896 17.7889 33.3396 8.89861 5.26008 44.7555 -2.84746 8.80395 -1.44199e-007 -1.74575e-007 3.61211e-007 -6.36111e-015 -3.18055e-015 -3.18055e-015 2.88398e-007 3.49151e-007 -7.22422e-007 -1.44199e-007 -1.74575e-007 3.61211e-007 0.0149439 -8.98737e-005 -1.95574e-006 2.88403e-007 3.49056e-007 -7.22468e-007 -1.44199e-007 -1.74575e-007 3.61211e-007 0.0189882 -0.00118956 -5.94211e-005 2.88397e-007 3.4903e-007 -7.22483e-007 -1.44199e-007 -1.74575e-007 3.61211e-007 0.0122546 -0.00324416 -0.000674941 2.8838e-007 3.49074e-007 -7.22468e-007 -1.44199e-007 -1.74575e-007 3.61211e-007 -6.36111e-015 -3.18055e-015 -3.18055e-015 2.88398e-007 3.49151e-007 -7.22422e-007 -174.687 -30.0026 175.985 -127.917 42.5563 104.967 2.68118 -3.83917 21.4738 -1.38717e-006 -3.38564e-007 8.98953e-007 100.362 -25.4208 119.138 -156.777 34.7181 121.541 14.439 34.4794 15.182 -3.14192e-006 1.84108e-007 -5.88925e-007 
-0.0383607 69.312 13.5809 -2.69981e-015 31.6011 180 -0.614888 5.44607 -0.214681 -1.21748 10.8941 -0.372874 -1.21748 10.8941 -0.372874 12.036 4.5309 -18.9682 11.3432 -36.5698 7.12341 -22.172 -15.6684 -34.7794 -9.00175 -22.4107 -19.2379 -15.8307 3.99022 -28.3012 -56.7092 -9.13957 3.31459 5.84179e-007 -4.01706e-007 -4.71821e-007 -6.36111e-015 2.38542e-015 5.1684e-015 -1.16836e-006 8.03413e-007 9.43642e-007 5.84179e-007 -4.01706e-007 -4.71821e-007 -0.0146798 -8.73776e-005 -3.8862e-006 -1.16837e-006 8.03292e-007 9.43745e-007 5.84179e-007 -4.01706e-007 -4.71821e-007 -0.0187676 -0.00117509 5.80748e-005 -1.16837e-006 8.03257e-007 9.43785e-007 5.84179e-007 -4.01706e-007 -4.71821e-007 -0.0122825 -0.00325188 0.000678908 -1.16834e-006 8.03315e-007 9.43762e-007 5.84179e-007 -4.01706e-007 -4.71821e-007 -6.36111e-015 2.38542e-015 5.1684e-015 -1.16836e-006 8.03413e-007 9.43642e-007 12.2705 -6.51566 5.74458 41.7112 -5.5449 17.6318 32.5094 8.82424 5.12027 45.1571 -2.49844 8.86652 3.14785e-008 -3.30024e-006 -2.00949e-006 1.44165e-007 1.74593e-007 -3.61219e-007 -3.23947e-008 -2.71516e-006 -1.75796e-006 3.14785e-008 -3.30024e-006 -2.00949e-006 0.0149833 -9.47154e-005 2.75388e-006 -3.38582e-007 -4.43508e-006 -2.65107e-006 3.14785e-008 -3.30024e-006 -2.00949e-006 0.0189329 -0.00118568 -5.84701e-005 -3.22173e-008 -2.71546e-006 -1.75751e-006 3.14785e-008 -3.30024e-006 -2.00949e-006 0.0122362 -0.00323855 -0.00067499 -3.23029e-008 -2.71538e-006 -1.75768e-006 3.14785e-008 -3.30024e-006 -2.00949e-006 1.44165e-007 1.74593e-007 -3.61219e-007 -3.23947e-008 -2.71516e-006 -1.75796e-006 -174.597 -29.908 176.052 -128.076 42.4723 105.064 2.79141 -4.0905 21.5198 -1.16992e-007 2.02994e-006 1.82631e-007 100.161 -25.4055 119.011 -156.767 34.7294 121.527 14.6699 34.2399 14.8817 -5.73123e-007 -1.94152e-007 -2.2863e-007 
-0.064443 69.4824 13.5848 -2.73352e-015 31.401 180 -0.615658 5.35588 -0.21509 -1.21907 10.7138 -0.374542 -1.21907 10.7138 -0.374542 12.0572 5.66087 -19.2103 11.2618 -36.3926 7.05897 -22.3596 -15.2887 -34.3036 -9.09324 -22.3705 -19.4146 -16.0008 4.08562 -28.6215 -56.4212 -9.04056 3.50711 -1.88735e-006 -2.4288e-007 -2.33682e-006 1.75262e-006 -1.20492e-006 -1.41551e-006 5.84206e-007 -4.0164e-007 -4.71838e-007 -1.88735e-006 -2.4288e-007 -2.33682e-006 -0.0145636 -8.93328e-005 -7.41183e-006 5.84213e-007 -4.0158e-007 -4.7189e-007 -1.88735e-006 -2.4288e-007 -2.33682e-006 -0.0187418 -0.00117457 5.74805e-005 5.84211e-007 -4.01563e-007 -4.7191e-007 -1.88735e-006 -2.4288e-007 -2.33682e-006 -0.0121675 -0.00321429 0.000662874 5.84197e-007 -4.01592e-007 -4.71897e-007 -1.88735e-006 -2.4288e-007 -2.33682e-006 1.75262e-006 -1.20492e-006 -1.41551e-006 5.84206e-007 -4.0164e-007 -4.71838e-007 13.024 -6.0936 5.90277 41.3773 -5.63991 17.4742 31.6793 8.75189 4.97944 45.5583 -2.14901 8.92662 1.44125e-007 1.74614e-007 -3.61229e-007 1.43125e-014 1.90833e-014 -3.18055e-015 1.44125e-007 1.74614e-007 -3.61229e-007 1.44125e-007 1.74614e-007 -3.61229e-007 0.0149806 -9.19259e-005 7.9919e-007 1.44128e-007 1.74566e-007 -3.61252e-007 1.44125e-007 1.74614e-007 -3.61229e-007 0.0189841 -0.00119097 -6.11581e-005 1.44125e-007 1.74554e-007 -3.6126e-007 1.44125e-007 1.74614e-007 -3.61229e-007 0.0122618 -0.00324805 -0.00067944 1.44117e-007 1.74575e-007 -3.61252e-007 1.44125e-007 1.74614e-007 -3.61229e-007 1.43125e-014 1.90833e-014 -3.18055e-015 1.44125e-007 1.74614e-007 -3.61229e-007 -174.507 -29.8134 176.118 -128.234 42.388 105.16 2.90185 -4.34174 21.5661 3.18055e-015 -6.36111e-015 1.59028e-015 99.9607 -25.3898 118.884 -156.757 34.7408 121.514 14.8987 33.9996 14.5835 -3.15926e-006 -6.23493e-009 -1.17838e-007 
-0.0905228 69.6528 13.5887 -2.76708e-015 31.2009 180 -0.616444 5.26572 -0.215496 -1.22069 10.5334 -0.376205 -1.22069 10.5334 -0.376205 12.0839 6.79243 -19.4537 11.1809 -36.2152 6.99496 -22.55 -14.9107 -33.8274 -9.18461 -22.3302 -19.5912 -16.1703 4.18197 -28.9415 -56.1337 -8.94059 3.69909 1.16849e-006 -8.0311e-007 -9.4371e-007 5.84244e-007 -4.01555e-007 -4.71855e-007 -5.84244e-007 4.01555e-007 4.71855e-007 1.16849e-006 -8.0311e-007 -9.4371e-007 -0.0145745 -9.2111e-005 -4.1093e-006 -5.84252e-007 4.01495e-007 4.71907e-007 1.16849e-006 -8.0311e-007 -9.4371e-007 -0.0187754 -0.00117029 6.20049e-005 -5.84249e-007 4.01477e-007 4.71927e-007 1.16849e-006 -8.0311e-007 -9.4371e-007 -0.0122799 -0.00324869 0.000668744 -5.84235e-007 4.01506e-007 4.71915e-007 1.16849e-006 -8.0311e-007 -9.4371e-007 5.84244e-007 -4.01555e-007 -4.71855e-007 -5.84244e-007 4.01555e-007 4.71855e-007 13.7755 -5.66964 6.05518 41.0431 -5.734 17.316 30.8495 8.68159 4.83767 45.9589 -1.79921 8.98426 -1.76556e-031 3.18055e-015 3.18055e-015 -3.19212e-007 -3.06457e-006 -1.03586e-006 -4.96916e-007 6.12034e-008 1.33916e-006 -1.76556e-031 3.18055e-015 3.18055e-015 0.0149377 -9.749e-005 -4.23553e-006 -6.07233e-007 -3.41389e-006 -3.12936e-007 -1.76556e-031 3.18055e-015 3.18055e-015 0.0189889 -0.00119456 -6.05546e-005 -4.98297e-007 6.15126e-008 1.33916e-006 -1.76556e-031 3.18055e-015 3.18055e-015 0.0122957 -0.00326126 -0.00068217 -4.97781e-007 6.15835e-008 1.33921e-006 -1.76556e-031 3.18055e-015 3.18055e-015 -3.19212e-007 -3.06457e-006 -1.03586e-006 -4.96916e-007 6.12034e-008 1.33916e-006 -174.418 -29.7186 176.185 -128.392 42.3035 105.256 3.01246 -4.5929 21.613 -3.18055e-015 -3.18055e-015 -4.77083e-015 99.7604 -25.3737 118.757 -156.746 34.7523 121.501 15.1251 33.7585 14.2875 2.73743e-009 3.02859e-008 -7.40396e-008 
